<svg width="144" height="82" viewBox="0 0 144 82" fill="none" xmlns="http://www.w3.org/2000/svg">
<path d="M60.8333 27.9999C60.8333 40.5521 50.427 50.7999 37.5 50.7999C24.573 50.7999 14.1667 40.5521 14.1667 27.9999C14.1667 15.4477 24.573 5.19989 37.5 5.19989C50.427 5.19989 60.8333 15.4477 60.8333 27.9999Z" stroke="white" stroke-width="4"/>
<path d="M42.3333 27.2002C42.3333 29.9212 40.1546 32.1002 37.5 32.1002C34.8454 32.1002 32.6667 29.9212 32.6667 27.2002C32.6667 24.4791 34.8454 22.3002 37.5 22.3002C40.1546 22.3002 42.3333 24.4791 42.3333 27.2002Z" stroke="white" stroke-width="3"/>
<path d="M65.5 27.2C65.5 28.6961 64.3012 29.9 62.8333 29.9C61.3655 29.9 60.1667 28.6961 60.1667 27.2C60.1667 25.7039 61.3655 24.5 62.8333 24.5C64.3012 24.5 65.5 25.7039 65.5 27.2Z" stroke="white"/>
<path d="M40.1667 52.7998C40.1667 54.2959 38.9678 55.4998 37.5 55.4998C36.0322 55.4998 34.8333 54.2959 34.8333 52.7998C34.8333 51.3037 36.0322 50.0998 37.5 50.0998C38.9678 50.0998 40.1667 51.3037 40.1667 52.7998Z" stroke="white"/>
<path d="M40.1667 3.2C40.1667 4.69612 38.9678 5.90001 37.5 5.90001C36.0322 5.90001 34.8333 4.69612 34.8333 3.2C34.8333 1.70388 36.0322 0.5 37.5 0.5C38.9678 0.5 40.1667 1.70388 40.1667 3.2Z" stroke="white"/>
<path d="M49.6667 4.8001C49.6667 6.29622 48.4678 7.5001 47 7.5001C45.5322 7.5001 44.3333 6.29622 44.3333 4.8001C44.3333 3.30398 45.5322 2.1001 47 2.1001C48.4678 2.1001 49.6667 3.30398 49.6667 4.8001Z" stroke="white"/>
<path d="M22.75 46.3999C22.75 47.896 21.5512 49.0999 20.0833 49.0999C18.6155 49.0999 17.4167 47.896 17.4167 46.3999C17.4167 44.9038 18.6155 43.6999 20.0833 43.6999C21.5512 43.6999 22.75 44.9038 22.75 46.3999Z" stroke="white"/>
<path d="M57.5833 46.3999C57.5833 47.896 56.3845 49.0999 54.9167 49.0999C53.4488 49.0999 52.25 47.896 52.25 46.3999C52.25 44.9038 53.4488 43.6999 54.9167 43.6999C56.3845 43.6999 57.5833 44.9038 57.5833 46.3999Z" stroke="white"/>
<path d="M22.75 9.59991C22.75 11.096 21.5512 12.2999 20.0833 12.2999C18.6155 12.2999 17.4167 11.096 17.4167 9.59991C17.4167 8.10379 18.6155 6.8999 20.0833 6.8999C21.5512 6.8999 22.75 8.10379 22.75 9.59991Z" stroke="white"/>
<path d="M57.5833 9.59991C57.5833 11.096 56.3845 12.2999 54.9167 12.2999C53.4488 12.2999 52.25 11.096 52.25 9.59991C52.25 8.10379 53.4488 6.8999 54.9167 6.8999C56.3845 6.8999 57.5833 8.10379 57.5833 9.59991Z" stroke="white"/>
<path d="M16.4167 38.4001C16.4167 39.8962 15.2178 41.1001 13.75 41.1001C12.2822 41.1001 11.0833 39.8962 11.0833 38.4001C11.0833 36.904 12.2822 35.7001 13.75 35.7001C15.2178 35.7001 16.4167 36.904 16.4167 38.4001Z" stroke="white"/>
<path d="M16.4167 17.6001C16.4167 19.0962 15.2178 20.3001 13.75 20.3001C12.2822 20.3001 11.0833 19.0962 11.0833 17.6001C11.0833 16.104 12.2822 14.9001 13.75 14.9001C15.2178 14.9001 16.4167 16.104 16.4167 17.6001Z" stroke="white"/>
<path d="M63.9167 36.8001C63.9167 38.2962 62.7178 39.5001 61.25 39.5001C59.7822 39.5001 58.5833 38.2962 58.5833 36.8001C58.5833 35.304 59.7822 34.1001 61.25 34.1001C62.7178 34.1001 63.9167 35.304 63.9167 36.8001Z" stroke="white"/>
<path d="M63.9167 17.6001C63.9167 19.0962 62.7178 20.3001 61.25 20.3001C59.7822 20.3001 58.5833 19.0962 58.5833 17.6001C58.5833 16.104 59.7822 14.9001 61.25 14.9001C62.7178 14.9001 63.9167 16.104 63.9167 17.6001Z" stroke="white"/>
<path d="M49.6667 51.2001C49.6667 52.6962 48.4678 53.9001 47 53.9001C45.5322 53.9001 44.3333 52.6962 44.3333 51.2001C44.3333 49.7039 45.5322 48.5001 47 48.5001C48.4678 48.5001 49.6667 49.7039 49.6667 51.2001Z" stroke="white"/>
<path d="M30.6667 51.2001C30.6667 52.6962 29.4678 53.9001 28 53.9001C26.5322 53.9001 25.3333 52.6962 25.3333 51.2001C25.3333 49.7039 26.5322 48.5001 28 48.5001C29.4678 48.5001 30.6667 49.7039 30.6667 51.2001Z" stroke="white"/>
<path d="M30.6667 4.8001C30.6667 6.29622 29.4678 7.5001 28 7.5001C26.5322 7.5001 25.3333 6.29622 25.3333 4.8001C25.3333 3.30398 26.5322 2.1001 28 2.1001C29.4678 2.1001 30.6667 3.30398 30.6667 4.8001Z" stroke="white"/>
<path d="M14.8333 27.2C14.8333 28.6961 13.6345 29.9 12.1667 29.9C10.6988 29.9 9.5 28.6961 9.5 27.2C9.5 25.7039 10.6988 24.5 12.1667 24.5C13.6345 24.5 14.8333 25.7039 14.8333 27.2Z" stroke="white"/>
<rect x="92.2727" y="43.3014" width="3.27273" height="14.6809" fill="white"/>
<rect x="98.8182" y="40.8546" width="3.27273" height="17.1277" fill="white"/>
<rect x="105.364" y="35.9609" width="3.27273" height="22.0213" fill="white"/>
<rect x="111.909" y="33.5142" width="3.27273" height="24.4681" fill="white"/>
<rect x="118.455" y="38.4077" width="3.27273" height="19.5745" fill="white"/>
<rect x="125.444" y="44" width="2.66667" height="14" fill="white"/>
<path d="M131.545 44.5248H134.818V57.9822H131.545V44.5248Z" fill="white"/>
<path fill-rule="evenodd" clip-rule="evenodd" d="M101.84 38.0291L106.742 33.9307L107.569 33.1398C110.347 30.4851 114.722 30.4851 117.5 33.1398L123.008 38.2802L127.536 42.7298C127.735 42.9251 127.966 43.084 128.22 43.199C129.052 43.5761 130.027 43.4423 130.727 42.855L132.739 41.1661C133.952 40.1487 135.467 39.6222 137 39.6339V43.6343C136.393 43.6222 135.791 43.8273 135.311 44.2302L133.298 45.9191C131.42 47.4955 128.803 47.8546 126.569 46.8425C125.888 46.5337 125.266 46.1073 124.732 45.5828L120.241 41.1693L114.771 36.064L114.754 36.048L114.737 36.0318C113.505 34.8545 111.565 34.8545 110.333 36.0318L109.505 36.8226L109.409 36.9142L109.308 36.9993L104.406 41.0978C103.017 42.259 101.493 43.2482 99.8675 44.0442L96.6365 45.6261C94.5787 46.6335 92.26 46.9812 89.9972 46.6216L89 46.4631V42.4129L90.6251 42.6712C92.0744 42.9015 93.5595 42.6788 94.8776 42.0335L98.1086 40.4517C99.4453 39.7972 100.698 38.9838 101.84 38.0291Z" fill="white"/>
<path fill-rule="evenodd" clip-rule="evenodd" d="M81.2976 4.23949C82.227 3.93997 82.8929 3.1318 82.8929 2.18182C82.8929 0.976833 81.8215 0 80.5 0C79.1785 0 78.1071 0.976833 78.1071 2.18182C78.1071 3.1318 78.773 3.93997 79.7024 4.23949V5.83426C71.779 6.15444 65.3757 11.2185 64.6219 17.6378C54.1299 18.9276 47 21.4558 47 24.3636C47 28.5811 61.9985 32 80.5 32C99.0015 32 114 28.5811 114 24.3636C114 21.4558 106.87 18.9276 96.3781 17.6378C95.6243 11.2185 89.221 6.15444 81.2976 5.83426V4.23949ZM80.5 23.2726C85.0962 23.2726 89.4221 22.9743 93.2025 22.4488C93.2418 22.0703 93.2619 21.6867 93.2619 21.2986C93.2619 14.7573 87.5482 9.45449 80.5 9.45449C73.4518 9.45449 67.7381 14.7573 67.7381 21.2986C67.7381 21.6867 67.7582 22.0703 67.7975 22.4488C71.5778 22.9743 75.9038 23.2726 80.5 23.2726Z" fill="white"/>
<rect x="72" y="40" width="1" height="16" fill="white"/>
<rect x="72" y="58" width="1" height="6" fill="white"/>
<rect x="76" y="53" width="1" height="4" fill="white"/>
<rect x="88" y="35" width="1" height="11" fill="white"/>
<rect x="88" y="48" width="1" height="11" fill="white"/>
<rect x="80" y="35" width="1" height="8" fill="white"/>
<rect x="80" y="45" width="1" height="5" fill="white"/>
<rect x="88" y="60" width="1" height="5" fill="white"/>
<rect x="80" y="51" width="1" height="4" fill="white"/>
<path d="M76 42H77V50H76V42Z" fill="white"/>
<path d="M76 34H77V40H76V34Z" fill="white"/>
<path d="M72 31H73V37H72V31Z" fill="white"/>
<rect x="84" y="47" width="1" height="8" fill="white"/>
<rect x="84" y="33" width="1" height="11" fill="white"/>
<path d="M15.4375 78.7344H8.65625L10.0938 74.625H13.8438L8.29688 60.2656H15.0312L23.2969 81H16.3125L15.4375 78.7344ZM6.8125 81H0.140625L7.54688 61.2031L10.6094 69.4375L6.8125 81ZM25.2656 81V60.2656H32.1719V81H25.2656ZM33.2656 64.4062V60.2656H41.1562L45.3125 64.4062V70.625L42.125 73.8125L41.9062 73.375L35.4219 74.2344L35.6719 74.7812H33.2656V70.7656H38.4531V64.4062H33.2656ZM46.0156 81H38.6406L35.6719 74.7812H41.1562L42.125 73.8125L46.0156 81ZM55.3906 72.4844V81H48.4844V60.2656H55.3906V68.4844H62V72.4844H55.3906ZM56.4844 64.2812V60.2656H67.2812V66.2656H60.7812V64.2812H56.4844ZM56.4844 81V76.8594H60.375V74.7812H67.2812V81H56.4844ZM119.047 74.0625H121.391V78.1094H119.047V81H112.406V60.2656H119.047V74.0625ZM100.703 74.2656L111.312 61.6719V69.875L107.547 74.0625H111.312V78.1094H102.344L100.703 74.2656ZM134.609 65.4688H141.234L134.969 81H127.656L134.609 65.4688ZM129.828 67.5625H123.062V62.3438L125.109 60.2656H141.734V64.4062H129.828V67.5625Z" fill="white"/>
<path d="M84.2188 74.7344H77.4375L78.875 70.625H82.625L77.0781 56.2656H83.8125L92.0781 77H85.0938L84.2188 74.7344ZM75.5938 77H68.9219L76.3281 57.2031L79.3906 65.4375L75.5938 77Z" fill="white"/>
<path fill-rule="evenodd" clip-rule="evenodd" d="M29.2531 57.9999L36.8739 36.9089L44.4946 57.9999H48.7478L39.6953 32.9467C38.7412 30.306 35.0066 30.306 34.0524 32.9467L25 57.9999H29.2531Z" fill="white"/>
</svg>
