<svg width="189" height="189" viewBox="0 0 189 189" fill="none" xmlns="http://www.w3.org/2000/svg">
<path fill-rule="evenodd" clip-rule="evenodd" d="M173 95C173 138.078 138.078 173 95 173C66.129 173 40.9216 157.314 27.435 134H32.8125L36.6094 122.438L33.5469 114.203L26.6563 132.622C20.5021 121.466 17 108.642 17 95C17 51.9218 51.9218 17 95 17C138.078 17 173 51.9218 173 95ZM26.6563 132.622L26.1406 134H27.435C27.1709 133.543 26.9113 133.084 26.6563 132.622ZM70.9531 96.4979C78.4234 93.784 83.8724 87.1099 84.7186 79.1657C85.9604 79.4082 87.2809 79.6303 88.6702 79.8298C88.5558 80.8159 88.3823 81.7846 88.1532 82.7322C87.867 82.6463 87.5638 82.6001 87.25 82.6001C85.5011 82.6001 84.0833 84.0328 84.0833 85.8001C84.0833 87.0621 84.8063 88.1535 85.8565 88.6744C85.0279 90.1919 84.0428 91.6151 82.9223 92.9234C82.3762 92.4713 81.6778 92.1999 80.9167 92.1999C79.1678 92.1999 77.75 93.6326 77.75 95.3999C77.75 96.0472 77.9402 96.6495 78.2671 97.1531C77.4752 97.7102 76.6491 98.2236 75.7925 98.6899C75.2588 97.6841 74.2084 97 73 97C72.3796 97 71.8008 97.1804 71.3122 97.4919L70.9531 96.4979ZM67.0662 97.5116L62.8739 85.9089L58.7627 97.2868C57.4401 96.995 56.1655 96.5837 54.9509 96.0654L60.0524 81.9467C60.0897 81.8435 60.1312 81.7444 60.1766 81.6493C61.1427 82.2522 62.2811 82.6002 63.5 82.6002C64.3028 82.6002 65.0707 82.4492 65.7774 82.1739L70.9531 96.4979C69.7095 96.9497 68.4099 97.2917 67.0662 97.5116ZM68.4451 101.328L67.0662 97.5116C65.9077 97.7012 64.7164 97.7999 63.5 97.7999C61.8696 97.7999 60.2844 97.6225 58.7627 97.2868L57.394 101.075C57.2852 101.048 57.1767 101.021 57.0685 100.994C57.1326 100.74 57.1667 100.474 57.1667 100.2C57.1667 98.6375 56.0585 97.3366 54.593 97.0561L54.9509 96.0654C47.3963 92.8411 42.1667 85.477 42.1667 76.9999C42.1667 65.5922 51.6373 56.1999 63.5 56.1999C72.0126 56.1999 79.2934 61.0363 82.7268 67.9834C76.7145 69.3637 73 71.2648 73 73.3636C73 75.6854 77.5455 77.7651 84.7186 79.1657C84.7945 78.4533 84.8333 77.7308 84.8333 76.9999C84.8333 73.7783 84.078 70.7174 82.7268 67.9834C83.2221 67.8697 83.733 67.7595 84.2588 67.653C84.6896 68.9031 85.8661 69.8001 87.25 69.8001C87.4158 69.8001 87.5786 69.7872 87.7376 69.7624C88.0664 70.819 88.325 71.9055 88.5083 73.0167C86.9121 73.1811 85.6667 74.5436 85.6667 76.2C85.6667 77.9278 87.0217 79.3357 88.7164 79.3979C88.7023 79.5422 88.6869 79.6862 88.6702 79.8298C91.5194 80.2388 94.658 80.5528 98 80.752V86H99V80.8079C101.411 80.9336 103.922 81 106.5 81C125.002 81 140 77.5811 140 73.3636C140 70.4558 132.87 67.9276 122.378 66.6378C121.624 60.2185 115.221 55.1544 107.298 54.8343V53.2395C108.227 52.94 108.893 52.1318 108.893 51.1818C108.893 49.9768 107.822 49 106.5 49C105.178 49 104.107 49.9768 104.107 51.1818C104.107 52.1318 104.773 52.94 105.702 53.2395V54.8343C97.779 55.1544 91.3757 60.2185 90.6219 66.6378L90.4161 66.6634C90.4165 66.6423 90.4167 66.6212 90.4167 66.6001C90.4167 64.8328 88.9989 63.4001 87.25 63.4001C86.4615 63.4001 85.7404 63.6913 85.1861 64.173C84.512 63.0831 83.7545 62.048 82.9223 61.0764C83.6311 60.4895 84.0833 59.5981 84.0833 58.5999C84.0833 56.8326 82.6656 55.3999 80.9167 55.3999C79.8083 55.3999 78.8329 55.9753 78.2671 56.8467C77.4753 56.2897 76.6492 55.7762 75.7927 55.31C76.0313 54.8602 76.1667 54.3461 76.1667 53.8001C76.1667 52.0328 74.7489 50.6001 73 50.6001C71.5223 50.6001 70.281 51.6229 69.9316 53.0061C68.8671 52.7334 67.7753 52.5268 66.6611 52.3911C66.6648 52.3279 66.6667 52.2641 66.6667 52.2C66.6667 50.4327 65.2489 49 63.5 49C61.7511 49 60.3333 50.4327 60.3333 52.2C60.3333 52.2641 60.3352 52.3279 60.3389 52.3911C59.2247 52.5268 58.1329 52.7334 57.0684 53.0061C56.719 51.6229 55.4777 50.6001 54 50.6001C52.2511 50.6001 50.8333 52.0328 50.8333 53.8001C50.8333 54.3461 50.9687 54.8602 51.2073 55.31C50.3508 55.7762 49.5247 56.2897 48.7329 56.8467C48.1671 55.9753 47.1917 55.3999 46.0833 55.3999C44.3344 55.3999 42.9167 56.8326 42.9167 58.5999C42.9167 59.5981 43.3689 60.4895 44.0777 61.0764C43.2455 62.048 42.4881 63.0831 41.8139 64.173C41.2596 63.6913 40.5385 63.4001 39.75 63.4001C38.0011 63.4001 36.5833 64.8328 36.5833 66.6001C36.5833 68.1998 37.745 69.5254 39.2624 69.7624C38.9336 70.819 38.675 71.9055 38.4917 73.0167C38.3848 73.0057 38.2764 73 38.1667 73C36.4178 73 35 74.4327 35 76.2C35 77.9673 36.4178 79.4 38.1667 79.4C38.2058 79.4 38.2448 79.3993 38.2836 79.3979C38.447 81.0649 38.7789 82.6837 39.2625 84.2377C37.7451 84.4747 36.5833 85.8003 36.5833 87.4001C36.5833 89.1674 38.0011 90.6001 39.75 90.6001C40.5385 90.6001 41.2597 90.3088 41.814 89.827C42.4882 90.9169 43.2456 91.9518 44.0777 92.9234C43.3689 93.5103 42.9167 94.4017 42.9167 95.3999C42.9167 97.1672 44.3344 98.5999 46.0833 98.5999C47.1917 98.5999 48.1671 98.0245 48.7329 97.1531C49.5248 97.7102 50.3509 98.2236 51.2075 98.6899C50.9687 99.1397 50.8333 99.6539 50.8333 100.2C50.8333 101.398 51.4846 102.442 52.4487 102.99L51 107H55.2531L57.394 101.075C58.3552 101.308 59.338 101.487 60.3389 101.609C60.3352 101.672 60.3333 101.736 60.3333 101.8C60.3333 103.567 61.7511 105 63.5 105C65.2489 105 66.6667 103.567 66.6667 101.8C66.6667 101.736 66.6648 101.672 66.6611 101.609C67.2626 101.535 67.8575 101.442 68.4451 101.328ZM69.9315 100.994C69.4417 101.119 68.946 101.231 68.4451 101.328L70.4946 107H74.7478L73.4361 103.37C74.9787 103.155 76.1667 101.818 76.1667 100.2C76.1667 99.6539 76.0313 99.1397 75.7925 98.6899C75.5002 98.849 75.2043 99.0026 74.9051 99.1505C74.5365 98.4625 73.8173 98 73 98C72.4986 98 72.034 98.1741 71.6648 98.4676L71.3122 97.4919C70.4236 98.0587 69.8333 99.0597 69.8333 100.2C69.8333 100.474 69.8674 100.74 69.9315 100.994ZM70.8955 100.727C70.8549 100.558 70.8333 100.382 70.8333 100.2C70.8333 99.4927 71.1601 98.8686 71.6648 98.4676L72.3119 100.258C71.8461 100.428 71.3738 100.584 70.8955 100.727ZM70.8955 100.727C71.1287 101.693 71.9893 102.4 73 102.4C73.0285 102.4 73.0568 102.399 73.0851 102.398L73.4361 103.37C73.2936 103.39 73.148 103.4 73 103.4C71.5222 103.4 70.2808 102.377 69.9315 100.994C70.2554 100.911 70.5768 100.822 70.8955 100.727ZM72.3119 100.258C73.2009 99.9356 74.0664 99.5652 74.9051 99.1505C75.0717 99.4616 75.1667 99.8187 75.1667 100.2C75.1667 101.396 74.2332 102.353 73.0851 102.398L72.3119 100.258ZM65.6649 101.711C65.9989 101.683 66.331 101.649 66.6611 101.609C66.5633 99.9304 65.1854 98.5998 63.5 98.5998C61.8146 98.5998 60.4367 99.9304 60.3389 101.609C60.669 101.649 61.0011 101.683 61.3351 101.711C61.3339 101.74 61.3333 101.77 61.3333 101.8C61.3333 103.025 62.3132 104 63.5 104C64.6868 104 65.6667 103.025 65.6667 101.8C65.6667 101.77 65.6661 101.74 65.6649 101.711ZM65.6649 101.711C64.9513 101.77 64.2293 101.8 63.5 101.8C62.7708 101.8 62.0487 101.77 61.3351 101.711C61.3813 100.528 62.3422 99.5998 63.5 99.5998C64.6578 99.5998 65.6187 100.528 65.6649 101.711ZM52.7961 102.029L52.4487 102.99C52.9072 103.251 53.4364 103.4 54 103.4C55.4778 103.4 56.7192 102.377 57.0685 100.994C56.7446 100.911 56.4232 100.822 56.1045 100.727C56.1451 100.558 56.1667 100.382 56.1667 100.2C56.1667 99.0612 55.3196 98.1383 54.2468 98.0142L54.593 97.0561C54.4009 97.0193 54.2027 97 54 97C52.7916 97 51.7412 97.6841 51.2075 98.6899C51.4998 98.849 51.7957 99.0026 52.0949 99.1505C51.9283 99.4616 51.8333 99.8187 51.8333 100.2C51.8333 100.967 52.2175 101.636 52.7961 102.029ZM53.5904 99.8308C54.4073 100.171 55.2462 100.47 56.1045 100.727C55.8713 101.693 55.0107 102.4 54 102.4C53.5563 102.4 53.1415 102.264 52.7961 102.029L53.5904 99.8308ZM53.5904 99.8308C53.0832 99.6195 52.5845 99.3926 52.0949 99.1505C52.4635 98.4625 53.1827 98 54 98C54.0834 98 54.1657 98.0049 54.2468 98.0142L53.5904 99.8308ZM47.9247 96.5604C48.1899 96.7631 48.4594 96.9607 48.7329 97.1531C49.0598 96.6495 49.25 96.0472 49.25 95.3999C49.25 93.6326 47.8322 92.1999 46.0833 92.1999C45.3222 92.1999 44.6238 92.4713 44.0777 92.9234C44.2948 93.1769 44.5169 93.426 44.744 93.6707C44.2416 94.0719 43.9167 94.6945 43.9167 95.3999C43.9167 96.6248 44.8966 97.5999 46.0833 97.5999C46.8559 97.5999 47.5407 97.1867 47.9247 96.5604ZM47.9247 96.5604C46.7819 95.6871 45.7176 94.7199 44.744 93.6707C45.1139 93.3753 45.58 93.1999 46.0833 93.1999C47.2701 93.1999 48.25 94.175 48.25 95.3999C48.25 95.8275 48.1306 96.2246 47.9247 96.5604ZM39.5865 85.2063C39.472 84.8864 39.3639 84.5635 39.2625 84.2377C39.4214 84.2129 39.5842 84.2001 39.75 84.2001C41.4989 84.2001 42.9167 85.6328 42.9167 87.4001C42.9167 88.3706 42.4891 89.2401 41.814 89.827C41.6344 89.5366 41.4608 89.2424 41.2931 88.9444C41.6778 88.5487 41.9167 88.0048 41.9167 87.4001C41.9167 86.1751 40.9368 85.2001 39.75 85.2001C39.695 85.2001 39.6405 85.2022 39.5865 85.2063ZM39.5865 85.2063C38.4746 85.2909 37.5833 86.2319 37.5833 87.4001C37.5833 88.625 38.5632 89.6001 39.75 89.6001C40.3509 89.6001 40.8987 89.3501 41.2931 88.9444C40.6239 87.7545 40.0516 86.5051 39.5865 85.2063ZM38.2063 78.3997C38.2254 78.7342 38.2511 79.067 38.2836 79.3979C39.9783 79.3357 41.3333 77.9278 41.3333 76.2C41.3333 74.5436 40.0879 73.1811 38.4917 73.0167C38.4376 73.3449 38.39 73.6753 38.3492 74.0078C38.289 74.0026 38.2281 74 38.1667 74C36.9799 74 36 74.9751 36 76.2C36 77.425 36.9799 78.4 38.1667 78.4C38.1799 78.4 38.1931 78.3999 38.2063 78.3997ZM38.2063 78.3997C38.18 77.9364 38.1667 77.4697 38.1667 76.9999C38.1667 75.9872 38.2287 74.9887 38.3492 74.0078C39.4522 74.1016 40.3333 75.0385 40.3333 76.2C40.3333 77.4113 39.3752 78.3782 38.2063 78.3997ZM39.5864 68.7939C39.4718 69.1138 39.3638 69.4367 39.2624 69.7624C39.4214 69.7872 39.5842 69.8001 39.75 69.8001C41.4989 69.8001 42.9167 68.3674 42.9167 66.6001C42.9167 65.6295 42.4891 64.7599 41.8139 64.173C41.6343 64.4634 41.4606 64.7577 41.293 65.0557C40.8986 64.65 40.3508 64.4001 39.75 64.4001C38.5632 64.4001 37.5833 65.3752 37.5833 66.6001C37.5833 67.7682 38.4745 68.7092 39.5864 68.7939ZM39.5864 68.7939C40.0514 67.495 40.6238 66.2456 41.293 65.0557C41.6778 65.4514 41.9167 65.9953 41.9167 66.6001C41.9167 67.825 40.9368 68.8001 39.75 68.8001C39.695 68.8001 39.6404 68.798 39.5864 68.7939ZM44.744 60.3291C44.5169 60.5738 44.2947 60.8229 44.0777 61.0764C44.6238 61.5286 45.3222 61.7999 46.0833 61.7999C47.8322 61.7999 49.25 60.3672 49.25 58.5999C49.25 57.9526 49.0598 57.3503 48.7329 56.8467C48.4594 57.0391 48.1899 57.2367 47.9247 57.4394C47.5407 56.8131 46.8559 56.3999 46.0833 56.3999C44.8966 56.3999 43.9167 57.375 43.9167 58.5999C43.9167 59.3053 44.2416 59.9279 44.744 60.3291ZM44.744 60.3291C45.7176 59.2799 46.7819 58.3127 47.9247 57.4394C48.1306 57.7752 48.25 58.1724 48.25 58.5999C48.25 59.8248 47.2701 60.7999 46.0833 60.7999C45.58 60.7999 45.1139 60.6245 44.744 60.3291ZM52.0948 54.8493C51.7955 54.9973 51.4996 55.1509 51.2073 55.31C51.741 56.316 52.7915 57.0001 54 57.0001C55.7489 57.0001 57.1667 55.5674 57.1667 53.8001C57.1667 53.526 57.1326 53.26 57.0684 53.0061C56.7445 53.0891 56.4231 53.1782 56.1044 53.2733C55.8711 52.3071 55.0105 51.6001 54 51.6001C52.8132 51.6001 51.8333 52.5752 51.8333 53.8001C51.8333 54.1813 51.9283 54.5384 52.0948 54.8493ZM52.0948 54.8493C53.373 54.2174 54.7133 53.6883 56.1044 53.2733C56.1451 53.4418 56.1667 53.6182 56.1667 53.8001C56.1667 55.025 55.1868 56.0001 54 56.0001C53.1826 56.0001 52.4633 55.5375 52.0948 54.8493ZM61.3351 52.2892C61.0011 52.3168 60.669 52.3508 60.3389 52.3911C60.4367 54.0694 61.8146 55.4 63.5 55.4C65.1854 55.4 66.5633 54.0694 66.6611 52.3911C66.331 52.3508 65.9989 52.3168 65.6649 52.2892C65.6661 52.2596 65.6667 52.2299 65.6667 52.2C65.6667 50.9751 64.6868 50 63.5 50C62.3132 50 61.3333 50.9751 61.3333 52.2C61.3333 52.2299 61.3339 52.2596 61.3351 52.2892ZM61.3351 52.2892C62.0487 52.23 62.7708 52.1999 63.5 52.1999C64.2293 52.1999 64.9513 52.23 65.6649 52.2892C65.6187 53.4719 64.6578 54.4 63.5 54.4C62.3422 54.4 61.3812 53.4719 61.3351 52.2892ZM70.8956 53.2733C70.5769 53.1782 70.2555 53.0891 69.9316 53.0061C69.8674 53.26 69.8333 53.526 69.8333 53.8001C69.8333 55.5674 71.2511 57.0001 73 57.0001C74.2085 57.0001 75.259 56.316 75.7927 55.31C75.5004 55.1509 75.2045 54.9973 74.9052 54.8493C75.0717 54.5384 75.1667 54.1813 75.1667 53.8001C75.1667 52.5752 74.1868 51.6001 73 51.6001C71.9895 51.6001 71.1289 52.3071 70.8956 53.2733ZM70.8956 53.2733C72.2867 53.6883 73.627 54.2174 74.9052 54.8493C74.5367 55.5375 73.8174 56.0001 73 56.0001C71.8132 56.0001 70.8333 55.025 70.8333 53.8001C70.8333 53.6182 70.8549 53.4418 70.8956 53.2733ZM79.0753 57.4394C78.8101 57.2367 78.5406 57.0391 78.2671 56.8467C77.9402 57.3503 77.75 57.9526 77.75 58.5999C77.75 60.3672 79.1678 61.7999 80.9167 61.7999C81.6778 61.7999 82.3762 61.5286 82.9223 61.0764C82.7053 60.8229 82.4831 60.5738 82.256 60.3291C82.7584 59.9279 83.0833 59.3053 83.0833 58.5999C83.0833 57.375 82.1034 56.3999 80.9167 56.3999C80.1441 56.3999 79.4593 56.8131 79.0753 57.4394ZM79.0753 57.4394C78.8694 57.7752 78.75 58.1723 78.75 58.5999C78.75 59.8248 79.7299 60.7999 80.9167 60.7999C81.42 60.7999 81.8861 60.6245 82.256 60.3291C81.2824 59.2799 80.2181 58.3127 79.0753 57.4394ZM85.707 65.0557C85.5394 64.7577 85.3657 64.4634 85.1861 64.173C84.5109 64.7599 84.0833 65.6295 84.0833 66.6001C84.0833 66.969 84.1451 67.3233 84.2588 67.653C84.585 67.5869 84.9169 67.5223 85.2544 67.4591C85.5853 68.2509 86.3594 68.8001 87.25 68.8001C87.305 68.8001 87.3596 68.798 87.4136 68.7939C87.5282 69.1138 87.6362 69.4367 87.7376 69.7624C89.2349 69.5286 90.3859 68.2347 90.4161 66.6634C90.0765 66.7058 89.7406 66.7495 89.4084 66.7945C89.4139 66.7305 89.4167 66.6657 89.4167 66.6001C89.4167 65.3752 88.4368 64.4001 87.25 64.4001C86.6492 64.4001 86.1014 64.65 85.707 65.0557ZM86.7745 67.1908C86.2564 67.277 85.7494 67.3665 85.2544 67.4591C85.1443 67.1959 85.0833 66.9057 85.0833 66.6001C85.0833 65.9953 85.3222 65.4514 85.707 65.0557C86.0963 65.7479 86.4528 66.4602 86.7745 67.1908ZM86.7745 67.1908C87.6231 67.0496 88.502 66.9174 89.4084 66.7945C89.3159 67.8712 88.4631 68.7139 87.4136 68.7939C87.2191 68.2506 87.0058 67.716 86.7745 67.1908ZM99 80.8079C98.6647 80.7904 98.3314 80.7718 98 80.752V80H99V80.8079ZM88.7937 78.3997C88.7747 78.7342 88.7489 79.067 88.7164 79.3979C88.7552 79.3993 88.7942 79.4 88.8333 79.4C90.5822 79.4 92 77.9673 92 76.2C92 74.4327 90.5822 73 88.8333 73C88.7236 73 88.6152 73.0057 88.5083 73.0167C88.5624 73.3449 88.61 73.6753 88.6508 74.0078C87.5478 74.1016 86.6667 75.0385 86.6667 76.2C86.6667 77.4113 87.6248 78.3782 88.7937 78.3997ZM88.7937 78.3997C88.8069 78.3999 88.8201 78.4 88.8333 78.4C90.0201 78.4 91 77.425 91 76.2C91 74.9751 90.0201 74 88.8333 74C88.7719 74 88.711 74.0026 88.6508 74.0078C88.7713 74.9887 88.8333 75.9872 88.8333 76.9999C88.8333 77.4697 88.82 77.9364 88.7937 78.3997ZM65.7774 82.1739C68.15 81.2496 69.8333 78.9235 69.8333 76.2002C69.8333 72.6655 66.9978 69.8001 63.5 69.8001C60.0022 69.8001 57.1667 72.6655 57.1667 76.2002C57.1667 78.5031 58.3703 80.5219 60.1766 81.6493C61.2941 79.31 64.7785 79.4092 65.6953 81.9467L65.7774 82.1739ZM79.0753 96.5604C78.8101 96.7631 78.5406 96.9607 78.2671 97.1531C78.8329 98.0245 79.8083 98.5999 80.9167 98.5999C82.6656 98.5999 84.0833 97.1672 84.0833 95.3999C84.0833 94.4017 83.6311 93.5103 82.9223 92.9234C82.7052 93.1769 82.4831 93.4261 82.256 93.6707C81.8861 93.3753 81.42 93.1999 80.9167 93.1999C79.7299 93.1999 78.75 94.175 78.75 95.3999C78.75 95.8275 78.8694 96.2246 79.0753 96.5604ZM79.0753 96.5604C79.4593 97.1867 80.1441 97.5999 80.9167 97.5999C82.1034 97.5999 83.0833 96.6248 83.0833 95.3999C83.0833 94.6945 82.7583 94.0719 82.256 93.6707C81.2823 94.72 80.2181 95.6871 79.0753 96.5604ZM86.3181 87.7864C86.1701 88.0858 86.0162 88.3819 85.8565 88.6744C86.277 88.883 86.7499 89.0001 87.25 89.0001C88.9989 89.0001 90.4167 87.5674 90.4167 85.8001C90.4167 84.35 89.4621 83.1251 88.1532 82.7322C88.0746 83.0575 87.9894 83.3803 87.8979 83.7005C87.6929 83.6352 87.4752 83.6001 87.25 83.6001C86.0632 83.6001 85.0833 84.5752 85.0833 85.8001C85.0833 86.6818 85.591 87.4341 86.3181 87.7864ZM86.3181 87.7864C86.6011 87.9236 86.9174 88.0001 87.25 88.0001C88.4368 88.0001 89.4167 87.0251 89.4167 85.8001C89.4167 84.8076 88.7733 83.9791 87.8979 83.7005C87.4925 85.1178 86.9618 86.4838 86.3181 87.7864ZM66.8333 76.2002C66.8333 78.1076 65.3114 79.6002 63.5 79.6002C61.6886 79.6002 60.1667 78.1076 60.1667 76.2002C60.1667 74.2927 61.6886 72.8001 63.5 72.8001C65.3114 72.8001 66.8333 74.2927 66.8333 76.2002ZM118.273 92.3014H121.545V95.0899C120.492 95.4729 119.388 95.6938 118.273 95.7469V92.3014ZM124.818 93.5579L122.636 94.6261C122.28 94.8005 121.916 94.9552 121.545 95.0899V106.982H118.273V95.7469C117.516 95.7829 116.753 95.7418 115.997 95.6216L115 95.4631V95H114V84H115V91.4129L116.625 91.6712C118.074 91.9015 119.56 91.6788 120.878 91.0335L124.109 89.4517C125.445 88.7972 126.698 87.9838 127.84 87.0291L132.742 82.9307L133.569 82.1398C136.347 79.4851 140.722 79.4851 143.5 82.1398L149.008 87.2802L153.536 91.7298C153.735 91.9251 153.966 92.084 154.22 92.199C155.052 92.5761 156.027 92.4423 156.727 91.855L158.739 90.1661C159.952 89.1487 161.467 88.6222 163 88.6339V92.6343C162.393 92.6222 161.791 92.8273 161.311 93.2302L160.818 93.6435V93.5248H157.545V95.9639C156.458 96.3939 155.268 96.5178 154.111 96.3172V93H151.444V95.1868C151.193 95.0035 150.955 94.8017 150.732 94.5828L147.727 91.63V87.4077H144.455V88.5021L141.182 85.4474V82.5142H137.909V84.2105C137.335 84.325 136.786 84.5987 136.333 85.0318L135.505 85.8226L135.409 85.9142L135.308 85.9993L134.636 86.5605V84.9609H131.364V89.2969L130.406 90.0978C129.67 90.7127 128.897 91.2794 128.091 91.7947V89.8546H124.818V93.5579ZM124.818 93.5579L125.867 93.0442C126.632 92.6697 127.375 92.2525 128.091 91.7947V106.982H124.818V93.5579ZM131.364 89.2969V106.982H134.636V86.5605L131.364 89.2969ZM137.909 84.2105V106.982H141.182V85.4474L140.771 85.064L140.754 85.048L140.737 85.0318C139.958 84.2875 138.896 84.0137 137.909 84.2105ZM144.455 88.5021V106.982H147.727V91.63L146.241 90.1693L144.455 88.5021ZM151.444 95.1868V107H154.111V96.3172C153.586 96.2262 153.068 96.0686 152.569 95.8425C152.172 95.6626 151.795 95.4427 151.444 95.1868ZM157.545 95.9639V106.982H160.818V93.6435L159.298 94.9191C158.765 95.3666 158.172 95.7161 157.545 95.9639ZM106.5 72.2726C111.096 72.2726 115.422 71.9743 119.202 71.4488C119.242 71.0703 119.262 70.6867 119.262 70.2986C119.262 63.7573 113.548 58.4545 106.5 58.4545C99.4518 58.4545 93.7381 63.7573 93.7381 70.2986C93.7381 70.6867 93.7582 71.0703 93.7975 71.4488C97.5779 71.9743 101.904 72.2726 106.5 72.2726ZM99 89H98V105H99V89ZM98 107H99V113H98V107ZM103 102H102V106H103V102ZM115 97H114V108H115V97ZM107 84V92H106V84H107ZM107 99V94H106V99H107ZM114 109H115V114H114V109ZM102 91H103V99H102V91ZM103 83H102V89H103V83ZM111 96H110V104H111V96ZM110 82H111V93H110V82ZM34.6562 131.734H41.4375L42.3125 134H49.2969L41.0312 113.266H34.2969L39.8438 127.625H36.0938L34.6562 131.734ZM51.2656 113.266V134H58.1719V113.266H51.2656ZM59.2656 113.266V117.406H64.4531V123.766H59.2656V127.781H61.6719L64.6406 134H72.0156L68.125 126.812L71.3125 123.625V117.406L67.1562 113.266H59.2656ZM68.125 126.812L67.1562 127.781H61.6719L61.4219 127.234L67.9062 126.375L68.125 126.812ZM81.3906 134V125.484H88V121.484H81.3906V113.266H74.4844V134H81.3906ZM82.4844 113.266V117.281H86.7812V119.266H93.2812V113.266H82.4844ZM82.4844 129.859V134H93.2812V127.781H86.375V129.859H82.4844ZM107 100H106V104H107V100ZM147.391 127.062H145.047V113.266H138.406V134H145.047V131.109H147.391V127.062ZM137.312 114.672L126.703 127.266L128.344 131.109H137.312V127.062H133.547L137.312 122.875V114.672ZM167.234 118.469H160.609L153.656 134H160.969L167.234 118.469ZM149.062 120.562H155.828V117.406H167.734V113.266H151.109L149.062 115.344V120.562ZM110.219 127.734H103.438L104.875 123.625H108.625L103.078 109.266H109.812L118.078 130H111.094L110.219 127.734ZM101.594 130H94.9219L102.328 110.203L105.391 118.438L101.594 130Z" fill="black"/>
<circle cx="94.5" cy="94.5" r="89.5" stroke="black" stroke-width="10"/>
</svg>
