<svg width="197" height="108" viewBox="0 0 197 108" fill="none" xmlns="http://www.w3.org/2000/svg">
<path fill-rule="evenodd" clip-rule="evenodd" d="M54.5 0C24.6766 0 0.5 24.1766 0.5 54C0.5 83.8234 24.6766 108 54.5 108H142.5C172.323 108 196.5 83.8234 196.5 54C196.5 24.1766 172.323 0 142.5 0H54.5ZM69.6649 14.2892C69.6187 15.4719 68.6578 16.4 67.5 16.4C66.3422 16.4 65.3812 15.4719 65.3351 14.2892C66.0487 14.23 66.7708 14.1999 67.5 14.1999C68.2292 14.1999 68.9513 14.23 69.6649 14.2892ZM70.6611 14.3911C70.331 14.3508 69.9989 14.3168 69.6649 14.2892C69.6661 14.2596 69.6667 14.2299 69.6667 14.2C69.6667 12.9751 68.6868 12 67.5 12C66.3132 12 65.3333 12.9751 65.3333 14.2C65.3333 14.2299 65.3339 14.2596 65.3351 14.2892C65.0011 14.3168 64.669 14.3508 64.3389 14.3911C64.3352 14.3279 64.3333 14.2641 64.3333 14.2C64.3333 12.4327 65.7511 11 67.5 11C69.2489 11 70.6667 12.4327 70.6667 14.2C70.6667 14.2641 70.6648 14.3279 70.6611 14.3911ZM73.9316 15.0061C72.8671 14.7334 71.7753 14.5268 70.6611 14.3911C70.5633 16.0694 69.1854 17.4 67.5 17.4C65.8146 17.4 64.4367 16.0694 64.3389 14.3911C63.2247 14.5268 62.1329 14.7334 61.0684 15.0061C60.719 13.6229 59.4777 12.6001 58 12.6001C56.2511 12.6001 54.8333 14.0328 54.8333 15.8001C54.8333 16.3462 54.9687 16.8603 55.2073 17.31C54.3508 17.7762 53.5247 18.2897 52.7329 18.8467C52.1671 17.9753 51.1917 17.3999 50.0833 17.3999C48.3344 17.3999 46.9167 18.8326 46.9167 20.5999C46.9167 21.5981 47.3689 22.4895 48.0777 23.0764C47.2455 24.048 46.488 25.0831 45.8139 26.173C45.2596 25.6913 44.5385 25.4001 43.75 25.4001C42.0011 25.4001 40.5833 26.8328 40.5833 28.6001C40.5833 30.1998 41.745 31.5254 43.2624 31.7624C42.9336 32.819 42.675 33.9055 42.4917 35.0167C42.3848 35.0057 42.2764 35 42.1667 35C40.4178 35 39 36.4327 39 38.2C39 39.9673 40.4178 41.4 42.1667 41.4C42.2058 41.4 42.2448 41.3993 42.2836 41.3979C42.447 43.0649 42.7789 44.6837 43.2626 46.2377C41.7451 46.4747 40.5833 47.8003 40.5833 49.4001C40.5833 51.1674 42.0011 52.6001 43.75 52.6001C44.5385 52.6001 45.2597 52.3088 45.814 51.827C46.4882 52.9169 47.2456 53.9518 48.0777 54.9234C47.3689 55.5103 46.9167 56.4017 46.9167 57.3999C46.9167 59.1672 48.3344 60.5999 50.0833 60.5999C51.1917 60.5999 52.1671 60.0245 52.7329 59.1531C53.5248 59.7102 54.3509 60.2236 55.2075 60.6899C54.9687 61.1397 54.8333 61.6539 54.8333 62.2001C54.8333 63.3978 55.4846 64.4419 56.4487 64.9904L55 68.9999H59.2531L61.394 63.0748C62.3552 63.3076 63.338 63.4868 64.3389 63.6087C64.3352 63.672 64.3333 63.7357 64.3333 63.7998C64.3333 65.5671 65.7511 66.9998 67.5 66.9998C69.2489 66.9998 70.6667 65.5671 70.6667 63.7998C70.6667 63.7357 70.6648 63.672 70.6611 63.6087C71.2626 63.5354 71.8575 63.4415 72.4451 63.3277L74.4947 68.9999H78.7478L77.4361 65.3699C78.9787 65.1552 80.1667 63.8178 80.1667 62.2001C80.1667 61.6539 80.0313 61.1397 79.7925 60.6899C80.6491 60.2236 81.4752 59.7102 82.2671 59.1531C82.8329 60.0245 83.8083 60.5999 84.9167 60.5999C86.6656 60.5999 88.0833 59.1672 88.0833 57.3999C88.0833 56.4017 87.6311 55.5103 86.9223 54.9235C88.0428 53.6151 89.0279 52.1919 89.8565 50.6744C90.277 50.883 90.7499 51.0001 91.25 51.0001C92.9989 51.0001 94.4167 49.5674 94.4167 47.8001C94.4167 46.35 93.4621 45.1251 92.1532 44.7322C92.3823 43.7846 92.5558 42.8159 92.6702 41.8298C95.5194 42.2388 98.658 42.5528 102 42.752V48H103V42.8079C105.411 42.9336 107.922 43 110.5 43C129.002 43 144 39.5811 144 35.3636C144 32.4558 136.87 29.9276 126.378 28.6378C125.624 22.2185 119.221 17.1544 111.298 16.8343V15.2395C112.227 14.94 112.893 14.1318 112.893 13.1818C112.893 11.9768 111.822 11 110.5 11C109.178 11 108.107 11.9768 108.107 13.1818C108.107 14.1318 108.773 14.94 109.702 15.2395V16.8343C101.779 17.1544 95.3757 22.2185 94.6219 28.6378L94.4161 28.6634C94.4165 28.6423 94.4167 28.6212 94.4167 28.6001C94.4167 26.8328 92.9989 25.4001 91.25 25.4001C90.4615 25.4001 89.7404 25.6913 89.1861 26.173C88.512 25.0831 87.7545 24.048 86.9223 23.0764C87.6311 22.4895 88.0833 21.5981 88.0833 20.5999C88.0833 18.8326 86.6656 17.3999 84.9167 17.3999C83.8083 17.3999 82.8329 17.9753 82.2671 18.8467C81.4753 18.2897 80.6492 17.7762 79.7927 17.31C80.0313 16.8602 80.1667 16.3461 80.1667 15.8001C80.1667 14.0328 78.7489 12.6001 77 12.6001C75.5223 12.6001 74.281 13.6229 73.9316 15.0061ZM74.8956 15.2733C74.5769 15.1782 74.2555 15.0891 73.9316 15.0061C73.8674 15.26 73.8333 15.526 73.8333 15.8001C73.8333 17.5674 75.2511 19.0001 77 19.0001C78.2085 19.0001 79.259 18.316 79.7927 17.31C79.5004 17.1509 79.2045 16.9973 78.9052 16.8493C79.0717 16.5384 79.1667 16.1813 79.1667 15.8001C79.1667 14.5752 78.1868 13.6001 77 13.6001C75.9895 13.6001 75.1289 14.3071 74.8956 15.2733ZM74.8956 15.2733C76.2867 15.6883 77.627 16.2174 78.9052 16.8493C78.5367 17.5375 77.8174 18.0001 77 18.0001C75.8132 18.0001 74.8333 17.025 74.8333 15.8001C74.8333 15.6182 74.8549 15.4418 74.8956 15.2733ZM83.0753 19.4394C82.8101 19.2367 82.5406 19.0391 82.2671 18.8467C81.9402 19.3503 81.75 19.9526 81.75 20.5999C81.75 22.3672 83.1678 23.7999 84.9167 23.7999C85.6778 23.7999 86.3762 23.5286 86.9223 23.0764C86.7053 22.8229 86.4831 22.5738 86.256 22.3291C86.7584 21.9279 87.0833 21.3053 87.0833 20.5999C87.0833 19.375 86.1034 18.3999 84.9167 18.3999C84.1441 18.3999 83.4593 18.8131 83.0753 19.4394ZM83.0753 19.4394C84.2181 20.3127 85.2824 21.2799 86.256 22.3291C85.8861 22.6245 85.42 22.7999 84.9167 22.7999C83.7299 22.7999 82.75 21.8248 82.75 20.5999C82.75 20.1723 82.8694 19.7752 83.0753 19.4394ZM89.707 27.0557C89.5394 26.7577 89.3657 26.4634 89.1861 26.173C88.5109 26.7599 88.0833 27.6295 88.0833 28.6001C88.0833 28.969 88.1451 29.3233 88.2588 29.653C87.733 29.7595 87.2221 29.8697 86.7268 29.9834C83.2934 23.0363 76.0126 18.1999 67.5 18.1999C55.6373 18.1999 46.1667 27.5922 46.1667 38.9999C46.1667 47.477 51.3963 54.8411 58.9509 58.0654L58.593 59.0561C58.4009 59.0193 58.2027 59 58 59C56.7916 59 55.7412 59.6841 55.2075 60.6899C55.4998 60.849 55.7957 61.0026 56.0949 61.1505C55.9283 61.4616 55.8333 61.8187 55.8333 62.2001C55.8333 62.967 56.2175 63.6361 56.7961 64.0291L56.4487 64.9904C56.9072 65.2513 57.4364 65.4001 58 65.4001C59.4778 65.4001 60.7192 64.3771 61.0685 62.9937C61.1767 63.0214 61.2852 63.0484 61.394 63.0748L62.7627 59.2868C64.2844 59.6225 65.8696 59.7999 67.5 59.7999C68.7164 59.7999 69.9077 59.7012 71.0662 59.5116L72.4451 63.3277C72.946 63.2307 73.4417 63.1192 73.9315 62.9937C74.2808 64.3771 75.5222 65.4001 77 65.4001C77.148 65.4001 77.2936 65.3898 77.4361 65.3699L77.0851 64.3984C78.2332 64.3531 79.1667 63.3956 79.1667 62.2001C79.1667 61.8187 79.0717 61.4616 78.9051 61.1505C79.2043 61.0026 79.5002 60.849 79.7925 60.6899C79.2588 59.6841 78.2084 59 77 59C76.3796 59 75.8008 59.1804 75.3122 59.4919L74.9531 58.4979C82.4234 55.784 87.8724 49.1099 88.7186 41.1657C89.9604 41.4082 91.2809 41.6303 92.6702 41.8298C92.6869 41.6862 92.7023 41.5422 92.7164 41.3979C92.7552 41.3993 92.7942 41.4 92.8333 41.4C94.5822 41.4 96 39.9673 96 38.2C96 36.4327 94.5822 35 92.8333 35C92.7236 35 92.6152 35.0057 92.5083 35.0167C92.325 33.9055 92.0664 32.819 91.7376 31.7624C93.2349 31.5286 94.3859 30.2347 94.4161 28.6634C94.0765 28.7058 93.7406 28.7495 93.4084 28.7945C93.4139 28.7305 93.4167 28.6657 93.4167 28.6001C93.4167 27.3752 92.4368 26.4001 91.25 26.4001C90.6492 26.4001 90.1014 26.65 89.707 27.0557ZM90.7745 29.1908C90.4528 28.4602 90.0963 27.7479 89.707 27.0557C89.3222 27.4513 89.0833 27.9953 89.0833 28.6001C89.0833 28.9057 89.1443 29.1959 89.2544 29.4591C88.9169 29.5223 88.585 29.5869 88.2588 29.653C88.6896 30.9031 89.8661 31.8001 91.25 31.8001C91.4158 31.8001 91.5786 31.7872 91.7376 31.7624C91.6362 31.4367 91.5282 31.1138 91.4136 30.7939C92.4631 30.7139 93.3159 29.8712 93.4084 28.7945C92.502 28.9174 91.6231 29.0496 90.7745 29.1908ZM90.7745 29.1908C91.0058 29.716 91.2191 30.2506 91.4136 30.7939C91.3596 30.798 91.305 30.8001 91.25 30.8001C90.3594 30.8001 89.5853 30.2509 89.2544 29.4591C89.7494 29.3665 90.2564 29.277 90.7745 29.1908ZM92.6508 36.0078C92.61 35.6753 92.5624 35.3449 92.5083 35.0167C90.9121 35.1811 89.6667 36.5436 89.6667 38.2C89.6667 39.9278 91.0217 41.3357 92.7164 41.3979C92.7489 41.067 92.7747 40.7342 92.7937 40.3997C92.8069 40.3999 92.8201 40.4 92.8333 40.4C94.0201 40.4 95 39.425 95 38.2C95 36.9751 94.0201 36 92.8333 36C92.7719 36 92.711 36.0026 92.6508 36.0078ZM92.6508 36.0078C92.7713 36.9887 92.8333 37.9872 92.8333 38.9999C92.8333 39.4697 92.82 39.9364 92.7937 40.3997C91.6248 40.3782 90.6667 39.4113 90.6667 38.2C90.6667 37.0385 91.5478 36.1016 92.6508 36.0078ZM69.7774 44.1739L74.9531 58.4979C73.7095 58.9497 72.4099 59.2917 71.0662 59.5116L66.8739 47.9089L62.7627 59.2868C61.4401 58.995 60.1655 58.5837 58.9509 58.0654L64.0524 43.9467C64.0897 43.8435 64.1312 43.7444 64.1766 43.6493C65.1427 44.2522 66.2811 44.6002 67.5 44.6002C68.3028 44.6002 69.0707 44.4492 69.7774 44.1739ZM69.7774 44.1739L69.6953 43.9467C68.7785 41.4092 65.2941 41.31 64.1766 43.6493C62.3703 42.5219 61.1667 40.5031 61.1667 38.2002C61.1667 34.6655 64.0022 31.8001 67.5 31.8001C70.9978 31.8001 73.8333 34.6655 73.8333 38.2002C73.8333 40.9235 72.15 43.2496 69.7774 44.1739ZM75.6648 60.4676L75.3122 59.4919C74.4236 60.0587 73.8333 61.0597 73.8333 62.2001C73.8333 62.474 73.8674 62.7399 73.9315 62.9937C74.2554 62.9107 74.5768 62.8216 74.8955 62.7265C75.1287 63.6929 75.9893 64.4001 77 64.4001C77.0285 64.4001 77.0569 64.3995 77.0851 64.3984L76.3119 62.2585C77.2009 61.9356 78.0664 61.5652 78.9051 61.1505C78.5365 60.4625 77.8173 60 77 60C76.4986 60 76.034 60.1741 75.6648 60.4676ZM75.6648 60.4676C75.1601 60.8686 74.8333 61.4927 74.8333 62.2001C74.8333 62.3818 74.8549 62.5581 74.8955 62.7265C75.3738 62.5838 75.8461 62.4277 76.3119 62.2585L75.6648 60.4676ZM60.1045 62.7265C59.8713 63.6929 59.0107 64.4001 58 64.4001C57.5563 64.4001 57.1415 64.2638 56.7961 64.0291L57.5904 61.8308C58.4073 62.171 59.2462 62.4705 60.1045 62.7265ZM58.2468 60.0142L58.593 59.0561C60.0585 59.3366 61.1667 60.6375 61.1667 62.2001C61.1667 62.474 61.1326 62.7399 61.0685 62.9937C60.7446 62.9107 60.4232 62.8216 60.1045 62.7265C60.1451 62.5581 60.1667 62.3818 60.1667 62.2001C60.1667 61.0612 59.3196 60.1383 58.2468 60.0142ZM58.2468 60.0142L57.5904 61.8308C57.0832 61.6195 56.5845 61.3926 56.0949 61.1505C56.4635 60.4625 57.1827 60 58 60C58.0834 60 58.1657 60.0049 58.2468 60.0142ZM88.7186 41.1657C81.5455 39.7651 77 37.6854 77 35.3636C77 33.2648 80.7145 31.3637 86.7268 29.9834C88.078 32.7174 88.8333 35.7783 88.8333 38.9999C88.8333 39.7308 88.7945 40.4533 88.7186 41.1657ZM103 42.8079V42H102V42.752C102.331 42.7718 102.665 42.7904 103 42.8079ZM91.8979 45.7005C91.9894 45.3803 92.0746 45.0575 92.1532 44.7322C91.867 44.6463 91.5638 44.6001 91.25 44.6001C89.5011 44.6001 88.0833 46.0328 88.0833 47.8001C88.0833 49.0621 88.8063 50.1535 89.8565 50.6744C90.0162 50.3819 90.1701 50.0858 90.3181 49.7864C90.6011 49.9236 90.9174 50.0001 91.25 50.0001C92.4368 50.0001 93.4167 49.0251 93.4167 47.8001C93.4167 46.8076 92.7733 45.9791 91.8979 45.7005ZM91.8979 45.7005C91.4925 47.1178 90.9618 48.4838 90.3181 49.7864C89.591 49.4341 89.0833 48.6818 89.0833 47.8001C89.0833 46.5752 90.0632 45.6001 91.25 45.6001C91.4752 45.6001 91.6929 45.6352 91.8979 45.7005ZM86.256 55.6707C86.4831 55.4261 86.7052 55.1769 86.9223 54.9235C86.3762 54.4713 85.6778 54.1999 84.9167 54.1999C83.1678 54.1999 81.75 55.6326 81.75 57.3999C81.75 58.0472 81.9402 58.6495 82.2671 59.1531C82.5406 58.9607 82.8101 58.7631 83.0753 58.5604C83.4593 59.1867 84.1441 59.5999 84.9167 59.5999C86.1034 59.5999 87.0833 58.6248 87.0833 57.3999C87.0833 56.6945 86.7584 56.0719 86.256 55.6707ZM86.256 55.6707C85.2823 56.72 84.2181 57.6871 83.0753 58.5604C82.8694 58.2246 82.75 57.8275 82.75 57.3999C82.75 56.175 83.7299 55.1999 84.9167 55.1999C85.42 55.1999 85.8861 55.3753 86.256 55.6707ZM69.6649 63.7106C69.9989 63.683 70.331 63.649 70.6611 63.6087C70.5633 61.9304 69.1854 60.5998 67.5 60.5998C65.8146 60.5998 64.4367 61.9304 64.3389 63.6087C64.669 63.649 65.0011 63.683 65.3351 63.7106L65.3339 63.748C65.3335 63.7652 65.3333 63.7825 65.3333 63.7998C65.3333 65.0247 66.3132 65.9998 67.5 65.9998C68.6868 65.9998 69.6667 65.0247 69.6667 63.7998C69.6667 63.7699 69.6661 63.7402 69.6649 63.7106ZM69.6649 63.7106C69.6187 62.5279 68.6578 61.5998 67.5 61.5998C66.3422 61.5998 65.3813 62.5279 65.3351 63.7106C66.0487 63.7698 66.7708 63.7999 67.5 63.7999C68.2292 63.7999 68.9513 63.7698 69.6649 63.7106ZM51.9247 58.5604C52.1899 58.7631 52.4594 58.9607 52.7329 59.1531C53.0598 58.6495 53.25 58.0472 53.25 57.3999C53.25 55.6326 51.8322 54.1999 50.0833 54.1999C49.3222 54.1999 48.6238 54.4713 48.0777 54.9234C48.2948 55.1769 48.5169 55.4261 48.744 55.6707C48.2416 56.0719 47.9167 56.6945 47.9167 57.3999C47.9167 58.6248 48.8966 59.5999 50.0833 59.5999C50.8559 59.5999 51.5407 59.1867 51.9247 58.5604ZM51.9247 58.5604C50.7819 57.6871 49.7177 56.7199 48.744 55.6707C49.1139 55.3753 49.58 55.1999 50.0833 55.1999C51.2701 55.1999 52.25 56.175 52.25 57.3999C52.25 57.8275 52.1306 58.2246 51.9247 58.5604ZM45.2931 50.9444C45.4608 51.2424 45.6344 51.5366 45.814 51.827C46.4891 51.2401 46.9167 50.3706 46.9167 49.4001C46.9167 47.6328 45.4989 46.2001 43.75 46.2001C43.5842 46.2001 43.4214 46.2129 43.2626 46.2377C43.3639 46.5635 43.472 46.8864 43.5865 47.2063C42.4746 47.2909 41.5833 48.2319 41.5833 49.4001C41.5833 50.625 42.5632 51.6001 43.75 51.6001C44.3509 51.6001 44.8987 51.3501 45.2931 50.9444ZM45.2931 50.9444C44.6239 49.7545 44.0516 48.5051 43.5865 47.2063C43.6405 47.2022 43.695 47.2001 43.75 47.2001C44.9368 47.2001 45.9167 48.1751 45.9167 49.4001C45.9167 50.0048 45.6778 50.5487 45.2931 50.9444ZM42.2063 40.3997C42.2254 40.7342 42.2511 41.067 42.2836 41.3979C43.9783 41.3357 45.3333 39.9278 45.3333 38.2C45.3333 36.5436 44.0879 35.1811 42.4917 35.0167C42.4376 35.3449 42.39 35.6753 42.3492 36.0078C42.289 36.0026 42.2281 36 42.1667 36C40.9799 36 40 36.9751 40 38.2C40 39.425 40.9799 40.4 42.1667 40.4C42.1799 40.4 42.1931 40.3999 42.2063 40.3997ZM42.2063 40.3997C42.18 39.9364 42.1667 39.4697 42.1667 38.9999C42.1667 37.9872 42.2287 36.9887 42.3492 36.0078C43.4522 36.1016 44.3333 37.0385 44.3333 38.2C44.3333 39.4113 43.3752 40.3782 42.2063 40.3997ZM43.5864 30.7939C43.4718 31.1138 43.3638 31.4367 43.2624 31.7624C43.4214 31.7872 43.5842 31.8001 43.75 31.8001C45.4989 31.8001 46.9167 30.3674 46.9167 28.6001C46.9167 27.6295 46.4891 26.7599 45.8139 26.173C45.6343 26.4634 45.4606 26.7577 45.293 27.0557C44.8986 26.65 44.3508 26.4001 43.75 26.4001C42.5632 26.4001 41.5833 27.3752 41.5833 28.6001C41.5833 29.7682 42.4745 30.7091 43.5864 30.7939ZM43.5864 30.7939C44.0514 29.495 44.6238 28.2456 45.293 27.0557C45.6778 27.4514 45.9167 27.9953 45.9167 28.6001C45.9167 29.825 44.9368 30.8001 43.75 30.8001C43.695 30.8001 43.6404 30.798 43.5864 30.7939ZM48.744 22.3291C48.5169 22.5738 48.2947 22.8229 48.0777 23.0764C48.6238 23.5286 49.3222 23.7999 50.0833 23.7999C51.8322 23.7999 53.25 22.3672 53.25 20.5999C53.25 19.9526 53.0598 19.3503 52.7329 18.8467C52.4594 19.0391 52.1899 19.2367 51.9247 19.4394C51.5407 18.8131 50.8559 18.3999 50.0833 18.3999C48.8966 18.3999 47.9167 19.375 47.9167 20.5999C47.9167 21.3053 48.2416 21.9279 48.744 22.3291ZM48.744 22.3291C49.7176 21.2799 50.7819 20.3127 51.9247 19.4394C52.1306 19.7752 52.25 20.1724 52.25 20.5999C52.25 21.8248 51.2701 22.7999 50.0833 22.7999C49.58 22.7999 49.1139 22.6245 48.744 22.3291ZM56.0948 16.8493C55.7955 16.9973 55.4996 17.1509 55.2073 17.31C55.741 18.316 56.7915 19.0001 58 19.0001C59.7489 19.0001 61.1667 17.5674 61.1667 15.8001C61.1667 15.526 61.1326 15.26 61.0684 15.0061C60.7445 15.0891 60.4231 15.1782 60.1044 15.2733C59.8711 14.3071 59.0105 13.6001 58 13.6001C56.8132 13.6001 55.8333 14.5752 55.8333 15.8001C55.8333 16.1813 55.9283 16.5384 56.0948 16.8493ZM56.0948 16.8493C57.373 16.2174 58.7133 15.6883 60.1044 15.2733C60.1451 15.4418 60.1667 15.6182 60.1667 15.8001C60.1667 17.025 59.1868 18.0001 58 18.0001C57.1826 18.0001 56.4633 17.5375 56.0948 16.8493ZM67.5 41.6002C69.3114 41.6002 70.8333 40.1076 70.8333 38.2002C70.8333 36.2927 69.3114 34.8001 67.5 34.8001C65.6886 34.8001 64.1667 36.2927 64.1667 38.2002C64.1667 40.1076 65.6886 41.6002 67.5 41.6002ZM125.545 54.3014H122.273V57.7469C121.516 57.7829 120.753 57.7418 119.997 57.6216L119 57.4631V57H118V46H119V53.4129L120.625 53.6712C122.074 53.9015 123.56 53.6788 124.878 53.0335L128.109 51.4517C129.445 50.7972 130.698 49.9838 131.84 49.0291L136.742 44.9307L137.569 44.1398C140.347 41.4851 144.722 41.4851 147.5 44.1398L153.008 49.2802L157.536 53.7297C157.735 53.9251 157.966 54.084 158.22 54.199C159.052 54.5761 160.027 54.4423 160.727 53.855L162.739 52.1661C163.952 51.1487 165.467 50.6222 167 50.6339V54.6343C166.393 54.6222 165.791 54.8273 165.311 55.2302L164.818 55.6435V55.5248H161.545V57.9639C160.458 58.3939 159.268 58.5178 158.111 58.3172V55H155.444V57.1868C155.193 57.0035 154.955 56.8017 154.732 56.5828L151.727 53.63V49.4077H148.455V50.5021L145.182 47.4474V44.5142H141.909V46.2105C141.335 46.325 140.786 46.5987 140.333 47.0318L139.505 47.8226L139.409 47.9142L139.308 47.9993L138.636 48.5605V46.9609H135.364V51.2969L134.406 52.0978C133.67 52.7127 132.897 53.2794 132.091 53.7947V51.8546H128.818V55.5579L126.636 56.6261C126.28 56.8005 125.916 56.9552 125.545 57.0899V54.3014ZM125.545 57.0899V68.9823H122.273V57.7469C123.388 57.6938 124.492 57.4729 125.545 57.0899ZM128.818 55.5579V68.9823H132.091V53.7947C131.375 54.2525 130.632 54.6697 129.867 55.0442L128.818 55.5579ZM135.364 51.2969L138.636 48.5605V68.9822H135.364V51.2969ZM141.909 46.2105C142.896 46.0137 143.958 46.2875 144.737 47.0318L144.754 47.048L144.771 47.064L145.182 47.4474V68.9823H141.909V46.2105ZM148.455 50.5021L150.241 52.1693L151.727 53.63V68.9822H148.455V50.5021ZM155.444 57.1868C155.795 57.4427 156.172 57.6626 156.569 57.8425C157.068 58.0686 157.586 58.2262 158.111 58.3172V69H155.444V57.1868ZM161.545 57.9639C162.172 57.7161 162.765 57.3666 163.298 56.9191L164.818 55.6435V68.9822H161.545V57.9639ZM123.202 33.4488C119.422 33.9743 115.096 34.2726 110.5 34.2726C105.904 34.2726 101.578 33.9743 97.7975 33.4488C97.7582 33.0703 97.7381 32.6867 97.7381 32.2986C97.7381 25.7573 103.452 20.4545 110.5 20.4545C117.548 20.4545 123.262 25.7573 123.262 32.2986C123.262 32.6867 123.242 33.0703 123.202 33.4488ZM102 51H103V67H102V51ZM103 69H102V75H103V69ZM106 64H107V68H106V64ZM118 59H119V70H118V59ZM111 54V46H110V54H111ZM111 56V61H110V56H111ZM119 71H118V76H119V71ZM107 53H106V61H107V53ZM106 45H107V51H106V45ZM114 58H115V66H114V58ZM115 44H114V55H115V44ZM45.4375 89.7344H38.6562L40.0938 85.625H43.8438L38.2969 71.2656H45.0312L53.2969 92H46.3125L45.4375 89.7344ZM36.8125 92H30.1406L37.5469 72.2031L40.6094 80.4375L36.8125 92ZM55.2656 92V71.2656H62.1719V92H55.2656ZM63.2656 75.4062V71.2656H71.1562L75.3125 75.4062V81.625L72.125 84.8125L71.9062 84.375L65.4219 85.2344L65.6719 85.7812H63.2656V81.7656H68.4531V75.4062H63.2656ZM65.6719 85.7812H71.1562L72.125 84.8125L76.0156 92H68.6406L65.6719 85.7812ZM85.3906 83.4844V92H78.4844V71.2656H85.3906V79.4844H92V83.4844H85.3906ZM86.4844 75.2812V71.2656H97.2812V77.2656H90.7812V75.2812H86.4844ZM86.4844 92V87.8594H90.375V85.7812H97.2812V92H86.4844ZM149.047 85.0625H151.391V89.1094H149.047V92H142.406V71.2656H149.047V85.0625ZM110 62H111V66H110V62ZM130.703 85.2656L141.312 72.6719V80.875L137.547 85.0625H141.312V89.1094H132.344L130.703 85.2656ZM164.609 76.4688H171.234L164.969 92H157.656L164.609 76.4688ZM159.828 78.5625H153.062V73.3438L155.109 71.2656H171.734V75.4062H159.828V78.5625ZM107.438 85.7344H114.219L115.094 88H122.078L113.812 67.2656H107.078L112.625 81.625H108.875L107.438 85.7344ZM98.9219 88H105.594L109.391 76.4375L106.328 68.2031L98.9219 88Z" fill="black"/>
</svg>
