<svg width="82" height="85" viewBox="0 0 82 85" fill="none" xmlns="http://www.w3.org/2000/svg">
<path fill-rule="evenodd" clip-rule="evenodd" d="M11.1934 63.2585C14.2602 67.0408 18.0784 70.1889 22.4208 72.4756C13.8615 75.7672 10.9754 73.933 10.8026 73.768C10.6377 73.6105 8.84087 71.0543 11.1934 63.2585ZM39.3477 4.46932C42.6853 4.46932 45.9169 4.92352 48.9839 5.77348C61.2626 -0.732647 72.2534 -2.05401 77.989 3.42406C84.282 9.43462 82.6885 22.1409 75.0984 36.2099C75.263 37.6068 75.3477 39.0282 75.3477 40.4693C75.3477 52.3118 69.6295 62.8187 60.8036 69.3796C54.7813 73.9138 47.29 76.6015 39.171 76.6015C38.3291 76.6015 37.4939 76.5726 36.6664 76.5157C22.9019 84.8189 10.212 87.0323 3.89568 80.9995C-1.85383 75.5081 -1.02026 64.4276 4.95503 51.8251C3.79721 48.2932 3.171 44.5205 3.171 40.6015C3.171 28.759 8.88918 18.2521 17.7151 11.6912C23.7375 7.157 31.2287 4.46932 39.3477 4.46932ZM70.3678 22.1892C67.8969 18.0053 64.6037 14.3648 60.7106 11.4901C68.3062 8.83634 70.9179 10.4988 71.0821 10.6556C71.254 10.8198 73.1997 13.5912 70.3678 22.1892ZM38.9881 67.3574C54.1759 67.3574 66.4881 55.4772 66.4881 40.8223C66.4881 26.1674 54.1759 14.2872 38.9881 14.2872C23.8003 14.2872 11.4881 26.1674 11.4881 40.8223C11.4881 55.4772 23.8003 67.3574 38.9881 67.3574Z" fill="black"/>
<path fill-rule="evenodd" clip-rule="evenodd" d="M3.48801 81.5347C13.5138 89.7049 37.2783 79.754 57.2922 58.7995C77.7525 37.3776 86.5451 12.5679 76.9311 3.38547C76.8971 3.35293 76.8628 3.32063 76.8284 3.28857L69.9872 10.5874C70.0046 10.5999 70.0169 10.61 70.0242 10.617C70.2027 10.7875 72.2932 13.7683 68.964 23.1622C65.982 31.5764 59.5477 41.9597 50.0607 51.8926C40.5737 61.8254 30.4965 68.7295 22.2281 72.0945C15.3154 74.9078 11.8557 74.5201 10.4789 74.0762L3.48801 81.5347Z" fill="black"/>
</svg>
