<svg width="48" height="90" viewBox="0 0 48 90" fill="none" xmlns="http://www.w3.org/2000/svg">
<path fill-rule="evenodd" clip-rule="evenodd" d="M35.4666 17.3625C35.5064 17.2986 35.6086 17.1347 35.6086 16.6351C35.6086 15.6639 35.1378 14.2075 33.2485 12.7109C31.3422 11.2009 28.3209 10 24.6086 10C20.8963 10 17.8749 11.2009 15.9687 12.7109C14.0794 14.2075 13.6086 15.6639 13.6086 16.6351C13.6086 17.1347 13.7107 17.2986 13.7506 17.3625L13.7528 17.3661C13.8246 17.4816 14.0908 17.8453 14.8773 18.3139C16.6032 19.3421 19.8799 20.2844 24.6086 20.2844C29.3373 20.2844 32.614 19.3421 34.3399 18.3139C35.1264 17.8453 35.3926 17.4816 35.4644 17.3661L35.4666 17.3625ZM36.9777 28.1395C42.2095 25.9749 45.6086 22.1591 45.6086 16.6351C45.6086 7.44778 36.2066 0 24.6086 0C13.0106 0 3.60859 7.44778 3.60859 16.6351C3.60859 22.1591 7.00768 25.9749 12.2394 28.1395H10.2004C4.89993 28.1395 0.543718 32.1824 0.0471632 37.3527H0V38.3399V46.4929H8.57143V55.0237H0V64.9925H8.10391V64.9926V72.0853H20.5714V64.9926H28.0519V72.0853H40.5195V64.9926H48V55.8768H39.4286V47.346H48V38.3399L48 36.6947H47.868C47.0813 31.8434 42.873 28.1395 37.7996 28.1395H36.9777ZM40.5195 80.6161H28.0519V90H40.5195V80.6161ZM20.5714 80.6161H8.10391V90H20.5714V80.6161ZM15.4286 36.256H32.5714V44.7868H15.4286V36.256Z" fill="black"/>
</svg>
