<svg width="90" height="87" viewBox="0 0 90 87" fill="none" xmlns="http://www.w3.org/2000/svg">
<path fill-rule="evenodd" clip-rule="evenodd" d="M18.4587 35.4984L25.2041 32.7914L38.2438 20.8509C40.0224 18.7271 42.0032 16.6513 44.1735 14.664C59.4623 0.664051 78.3606 -3.6473 86.3842 5.03432C94.4078 13.7159 88.5182 32.103 73.2295 46.1029C70.9322 48.2065 68.5535 50.0913 66.1424 51.7462L55.6093 61.3914L51.0837 70.5059C50.7198 71.2386 50.2788 71.896 49.776 72.4764L49.4661 81.7619L48.9707 81.2302C48.6588 81.9177 48.0733 82.4789 47.2563 82.7311L35.5282 86.3512C33.1047 87.0993 30.7686 84.5926 31.701 82.2445L35.4543 72.7932C35.2747 72.6245 35.099 72.4482 34.9276 72.2643L31.7084 68.8101L14.7678 73.8795C12.3593 74.6002 10.0514 72.1238 10.9553 69.7885L17.3132 53.3636L15.4783 51.3947C14.9169 50.7923 14.4409 50.1503 14.0478 49.4821L4.1024 52.5519C1.67888 53.3 -0.657212 50.7933 0.275235 48.4453L4.78761 37.0825C5.09396 36.311 5.67773 35.78 6.36668 35.515L6.11674 35.2468L17.9005 35.7428C18.0822 35.6564 18.2683 35.5748 18.4587 35.4984ZM70.5789 26.0034C74.3921 26.1089 77.3978 23.1033 77.2923 19.29C77.1867 15.4768 74.01 12.3 70.1967 12.1945C66.3835 12.0889 63.3778 15.0946 63.4834 18.9078C63.5889 22.7211 66.7657 25.8979 70.5789 26.0034ZM61.3002 33.5082C61.4058 37.3214 58.4001 40.3271 54.5869 40.2216C50.7736 40.116 47.5969 36.9392 47.4913 33.126C47.3858 29.3128 50.3915 26.3071 54.2047 26.4126C58.0179 26.5182 61.1947 29.695 61.3002 33.5082ZM19.4226 69.3342C17.2573 69.7279 15.4137 67.7496 15.9715 65.6311L17.8274 58.5826C18.4288 56.2986 21.3278 55.576 22.9417 57.3078L28.2898 63.0464C29.9038 64.7782 28.961 67.5999 26.6266 68.0244L19.4226 69.3342Z" fill="black"/>
</svg>
