<svg width="200" height="200" viewBox="0 0 200 200" fill="none" xmlns="http://www.w3.org/2000/svg">
<path fill-rule="evenodd" clip-rule="evenodd" d="M117.046 60.8752C119.925 58.8376 121.681 56.0142 121.681 51.4644C121.681 41.8289 113.198 33 101.439 33C89.6801 33 81.1967 41.8289 81.1967 51.4644C81.1967 56.0142 82.9533 58.8376 85.8319 60.8752C89.1063 63.1929 94.4311 64.8199 101.439 64.8199C108.447 64.8199 113.772 63.1929 117.046 60.8752ZM119.252 71.1498C126.786 67.4459 131.681 60.9167 131.681 51.4644C131.681 35.744 118.141 23 101.439 23C84.7366 23 71.1967 35.744 71.1967 51.4644C71.1967 60.9167 76.0918 67.4459 83.6261 71.1498H81C72.7157 71.1498 66 77.8655 66 86.1498V86.9146V91.0579V102.554H78.3437V117.151H66V134.209H77.6705V146.346H95.625V134.209H106.398V146.346H124.352V134.21H135.125V118.611H122.781V104.014H135.125V91.0732L135.125 91.0579V86.1498L135.125 86.1345V85.7887H135.121C134.929 77.6713 128.289 71.1498 120.125 71.1498H119.252ZM124.352 160.943H106.398V177H124.352V160.943ZM95.625 160.943H77.6705V177H95.625V160.943ZM88.2187 85.038H112.906V99.6352H88.2187V85.038Z" fill="black"/>
</svg>
