<svg width="200" height="200" viewBox="0 0 200 200" fill="none" xmlns="http://www.w3.org/2000/svg">
<path d="M81.8374 74.1512C81.8374 94.65 65.2739 111.257 44.8551 111.257C24.4363 111.257 7.8728 94.65 7.8728 74.1512C7.8728 53.6524 24.4363 37.0457 44.8551 37.0457C65.2739 37.0457 81.8374 53.6524 81.8374 74.1512Z" stroke="black" stroke-width="4"/>
<path d="M53.1006 72.8901C53.1006 77.685 49.36 81.4818 44.8551 81.4818C40.3501 81.4818 36.6095 77.685 36.6095 72.8901C36.6095 68.0952 40.3501 64.2983 44.8551 64.2983C49.36 64.2983 53.1006 68.0952 53.1006 72.8901Z" stroke="black" stroke-width="3"/>
<path d="M88.2101 72.89C88.2101 75.4172 86.236 77.4359 83.8373 77.4359C81.4386 77.4359 79.4645 75.4172 79.4645 72.89C79.4645 70.3628 81.4386 68.3441 83.8373 68.3441C86.236 68.3441 88.2101 70.3628 88.2101 72.89Z" stroke="black"/>
<path d="M49.2279 113.257C49.2279 115.784 47.2538 117.803 44.8551 117.803C42.4564 117.803 40.4823 115.784 40.4823 113.257C40.4823 110.729 42.4564 108.711 44.8551 108.711C47.2538 108.711 49.2279 110.729 49.2279 113.257Z" stroke="black"/>
<path d="M49.2279 35.0459C49.2279 37.5731 47.2538 39.5918 44.8551 39.5918C42.4564 39.5918 40.4823 37.5731 40.4823 35.0459C40.4823 32.5187 42.4564 30.5 44.8551 30.5C47.2538 30.5 49.2279 32.5187 49.2279 35.0459Z" stroke="black"/>
<path d="M63.8462 37.5689C63.8462 40.0962 61.8721 42.1148 59.4734 42.1148C57.0747 42.1148 55.1006 40.0962 55.1006 37.5689C55.1006 35.0417 57.0747 33.0231 59.4734 33.0231C61.8721 33.0231 63.8462 35.0417 63.8462 37.5689Z" stroke="black"/>
<path d="M22.4276 103.165C22.4276 105.692 20.4535 107.711 18.0548 107.711C15.6561 107.711 13.682 105.692 13.682 103.165C13.682 100.638 15.6561 98.6191 18.0548 98.6191C20.4535 98.6191 22.4276 100.638 22.4276 103.165Z" stroke="black"/>
<path d="M76.0282 103.165C76.0282 105.692 74.0541 107.711 71.6554 107.711C69.2567 107.711 67.2826 105.692 67.2826 103.165C67.2826 100.638 69.2567 98.6191 71.6554 98.6191C74.0541 98.6191 76.0282 100.638 76.0282 103.165Z" stroke="black"/>
<path d="M22.4276 45.1376C22.4276 47.6648 20.4535 49.6834 18.0548 49.6834C15.6561 49.6834 13.682 47.6648 13.682 45.1376C13.682 42.6103 15.6561 40.5917 18.0548 40.5917C20.4535 40.5917 22.4276 42.6103 22.4276 45.1376Z" stroke="black"/>
<path d="M76.0282 45.1376C76.0282 47.6648 74.0541 49.6834 71.6554 49.6834C69.2567 49.6834 67.2826 47.6648 67.2826 45.1376C67.2826 42.6103 69.2567 40.5917 71.6554 40.5917C74.0541 40.5917 76.0282 42.6103 76.0282 45.1376Z" stroke="black"/>
<path d="M12.6819 90.5505C12.6819 93.0777 10.7078 95.0964 8.30913 95.0964C5.91041 95.0964 3.93634 93.0777 3.93634 90.5505C3.93634 88.0233 5.91041 86.0046 8.30913 86.0046C10.7078 86.0046 12.6819 88.0233 12.6819 90.5505Z" stroke="black"/>
<path d="M12.6819 57.7523C12.6819 60.2795 10.7078 62.2982 8.30913 62.2982C5.91041 62.2982 3.93634 60.2795 3.93634 57.7523C3.93634 55.2251 5.91041 53.2064 8.30913 53.2064C10.7078 53.2064 12.6819 55.2251 12.6819 57.7523Z" stroke="black"/>
<path d="M85.7738 88.0277C85.7738 90.5549 83.7997 92.5736 81.401 92.5736C79.0023 92.5736 77.0282 90.5549 77.0282 88.0277C77.0282 85.5005 79.0023 83.4818 81.401 83.4818C83.7997 83.4818 85.7738 85.5005 85.7738 88.0277Z" stroke="black"/>
<path d="M85.7738 57.7523C85.7738 60.2795 83.7997 62.2982 81.401 62.2982C79.0023 62.2982 77.0282 60.2795 77.0282 57.7523C77.0282 55.2251 79.0023 53.2064 81.401 53.2064C83.7997 53.2064 85.7738 55.2251 85.7738 57.7523Z" stroke="black"/>
<path d="M63.8462 110.734C63.8462 113.261 61.8721 115.28 59.4734 115.28C57.0747 115.28 55.1006 113.261 55.1006 110.734C55.1006 108.207 57.0747 106.188 59.4734 106.188C61.8721 106.188 63.8462 108.207 63.8462 110.734Z" stroke="black"/>
<path d="M34.6095 110.734C34.6095 113.261 32.6354 115.28 30.2367 115.28C27.838 115.28 25.8639 113.261 25.8639 110.734C25.8639 108.207 27.838 106.188 30.2367 106.188C32.6354 106.188 34.6095 108.207 34.6095 110.734Z" stroke="black"/>
<path d="M34.6095 37.5689C34.6095 40.0962 32.6354 42.1148 30.2367 42.1148C27.838 42.1148 25.8639 40.0962 25.8639 37.5689C25.8639 35.0417 27.838 33.0231 30.2367 33.0231C32.6354 33.0231 34.6095 35.0417 34.6095 37.5689Z" stroke="black"/>
<path d="M10.2456 72.89C10.2456 75.4172 8.2715 77.4359 5.87279 77.4359C3.47407 77.4359 1.5 75.4172 1.5 72.89C1.5 70.3628 3.47407 68.3441 5.87279 68.3441C8.2715 68.3441 10.2456 70.3628 10.2456 72.89Z" stroke="black"/>
<rect x="129.138" y="98.2793" width="5.03599" height="23.1493" fill="black"/>
<rect x="139.21" y="94.4211" width="5.03599" height="27.0075" fill="black"/>
<rect x="149.282" y="86.7046" width="5.03599" height="34.724" fill="black"/>
<rect x="159.354" y="82.8463" width="5.03599" height="38.5822" fill="black"/>
<rect x="169.426" y="90.5627" width="5.03599" height="30.8658" fill="black"/>
<rect x="180.182" y="99.3809" width="4.1034" height="22.0757" fill="black"/>
<path d="M189.57 100.208H194.606V121.428H189.57V100.208Z" fill="black"/>
<path fill-rule="evenodd" clip-rule="evenodd" d="M143.248 90.49L151.403 83.5033L152.676 82.2563C156.922 78.099 163.712 78.099 167.958 82.2563L176.432 90.3618L183.409 97.3871C183.709 97.6891 184.06 97.9356 184.446 98.1148C185.726 98.7091 187.236 98.4998 188.306 97.5797L191.408 94.9117C193.262 93.3176 195.599 92.4906 197.963 92.5069V96.5071C196.54 96.4905 195.132 96.9852 194.016 97.9445L190.914 100.613C188.653 102.556 185.465 102.998 182.762 101.743C181.946 101.364 181.204 100.844 180.571 100.206L173.63 93.2169L165.193 85.147L165.176 85.1308L165.159 85.1143C162.468 82.4796 158.165 82.4796 155.475 85.1143L154.201 86.3613L154.106 86.4543L154.005 86.5408L145.851 93.5275C144.253 94.8962 142.495 96.0651 140.615 97.0084L134.975 99.838C132.174 101.243 129 101.729 125.907 101.225L124.102 100.931V96.8784L126.55 97.277C128.812 97.6454 131.133 97.2905 133.181 96.2628L138.821 93.4331C140.411 92.6355 141.898 91.6472 143.248 90.49Z" fill="black"/>
<path fill-rule="evenodd" clip-rule="evenodd" d="M112.25 36.685C113.68 36.2127 114.704 34.9383 114.704 33.4404C114.704 31.5403 113.056 30 111.022 30C108.989 30 107.34 31.5403 107.34 33.4404C107.34 34.9383 108.365 36.2127 109.795 36.685V39.1997C103.031 39.4798 96.9878 42.0618 92.7486 46.0336C98.2562 45.3132 104.46 44.9083 111.022 44.9083C121.868 44.9084 130.66 53.27 130.66 63.5846C130.66 64.1965 130.629 64.8015 130.569 65.3983C124.751 66.227 118.095 66.6973 111.022 66.6973C103.95 66.6973 97.2931 66.227 91.476 65.3983C83.445 64.2541 77.0142 62.4269 73.2986 60.2111C64.7211 62.3616 59.4734 65.2464 59.4734 68.4175C59.4734 75.0637 82.525 80.4523 110.971 80.4587L111.022 80.4588L111.074 80.4587C139.52 80.4523 162.571 75.0637 162.571 68.4175C162.571 63.8323 151.6 59.8457 135.455 57.812C134.295 47.6898 124.442 39.7046 112.25 39.1997V36.685Z" fill="black"/>
<rect x="97.9428" y="93.0734" width="1.53877" height="25.2294" fill="black"/>
<rect x="97.9428" y="121.456" width="1.53877" height="9.46101" fill="black"/>
<rect x="104.098" y="113.572" width="1.53877" height="6.30734" fill="black"/>
<rect x="122.563" y="85.1892" width="1.53877" height="17.3452" fill="black"/>
<rect x="122.563" y="105.688" width="1.53877" height="17.3452" fill="black"/>
<rect x="110.253" y="85.1892" width="1.53877" height="12.6147" fill="black"/>
<rect x="110.253" y="100.958" width="1.53877" height="7.88417" fill="black"/>
<rect x="122.563" y="124.61" width="1.53877" height="7.88417" fill="black"/>
<rect x="110.253" y="110.418" width="1.53877" height="6.30734" fill="black"/>
<path d="M104.098 96.2271H105.637V108.842H104.098V96.2271Z" fill="black"/>
<path d="M104.098 83.6124H105.637V93.0734H104.098V83.6124Z" fill="black"/>
<path d="M97.9428 78.8821H99.4816V88.3431H97.9428V78.8821Z" fill="black"/>
<rect x="116.408" y="104.111" width="1.53877" height="12.6147" fill="black"/>
<rect x="116.408" y="82.0356" width="1.53877" height="17.3452" fill="black"/>
<path d="M24.2617 160.026H15.3613L17.248 154.633H22.1699L14.8896 135.786H23.7285L34.5771 163H25.4102L24.2617 160.026ZM12.9414 163H4.18457L13.9053 137.017L17.9248 147.824L12.9414 163ZM37.1611 163V135.786H46.2256V163H37.1611ZM47.6611 141.221V135.786H58.0176L63.4727 141.221V149.383L59.2891 153.566L59.002 152.992L50.4912 154.12L50.8193 154.838H47.6611V149.567H54.4697V141.221H47.6611ZM64.3955 163H54.7158L50.8193 154.838H58.0176L59.2891 153.566L64.3955 163ZM76.7002 151.823V163H67.6357V135.786H76.7002V146.573H85.375V151.823H76.7002ZM78.1357 141.057V135.786H92.3066V143.661H83.7754V141.057H78.1357ZM78.1357 163V157.565H83.2422V154.838H92.3066V163H78.1357ZM160.249 153.895H163.325V159.206H160.249V163H151.533V135.786H160.249V153.895ZM136.173 154.161L150.098 137.632V148.398L145.155 153.895H150.098V159.206H138.326L136.173 154.161ZM180.675 142.615H189.37L181.146 163H171.549L180.675 142.615ZM174.399 145.363H165.52V138.514L168.206 135.786H190.026V141.221H174.399V145.363Z" fill="black"/>
<path d="M115.537 151.026H106.637L108.523 145.633H113.445L106.165 126.786H115.004L125.853 154H116.686L115.537 151.026ZM104.217 154H95.46L105.181 128.017L109.2 138.824L104.217 154Z" fill="black"/>
<path fill-rule="evenodd" clip-rule="evenodd" d="M29.8618 121.457L43.8917 81.6674L57.9215 121.457H62.1629L46.7209 77.6627C45.7795 74.9928 42.0038 74.9928 41.0624 77.6627L25.6204 121.457H29.8618Z" fill="black"/>
</svg>
