<svg width="200" height="200" viewBox="0 0 200 200" fill="none" xmlns="http://www.w3.org/2000/svg">
<path fill-rule="evenodd" clip-rule="evenodd" d="M147.493 77.6471C152.499 63.552 150.31 56.5815 147.868 54.2537C145.427 51.9272 138.356 50.0658 124.493 55.6907C134.207 61.3242 141.963 69.9507 146.492 80.305C146.849 79.4078 147.183 78.5215 147.493 77.6471ZM44.667 101.635C44.667 107.391 45.5886 112.932 47.2927 118.12C38.4984 136.63 37.2716 152.905 45.7336 160.971C55.0297 169.832 73.7064 166.581 93.9646 154.385C95.1825 154.469 96.4117 154.511 97.6508 154.511C109.597 154.511 120.62 150.565 129.482 143.909C142.476 134.272 150.895 118.838 150.895 101.441C150.895 99.324 150.77 97.2363 150.528 95.1846C161.699 74.5202 164.044 55.8574 154.782 47.0292C146.341 38.9831 130.165 40.9239 112.093 50.4801C107.579 49.2317 102.823 48.5646 97.9109 48.5646C85.9645 48.5646 74.9415 52.5103 66.0791 59.1671C53.0856 68.8034 44.667 84.238 44.667 101.635ZM53.0222 130.353L53.0694 130.221C59.1628 139.665 68.1875 147.049 78.8606 151.09C77.911 151.52 76.9727 151.923 76.0469 152.299C62.1678 157.936 55.09 156.074 52.6478 153.746C50.2056 151.418 48.0167 144.448 53.0222 130.353ZM97.3816 140.933C119.735 140.933 137.855 123.484 137.855 101.959C137.855 80.4342 119.735 62.9848 97.3816 62.9848C75.0286 62.9848 56.9079 80.4342 56.9079 101.959C56.9079 123.484 75.0286 140.933 97.3816 140.933Z" fill="black"/>
<path fill-rule="evenodd" clip-rule="evenodd" d="M45.1336 161.757C59.8893 173.757 94.8652 159.141 124.321 128.364C154.434 96.8996 167.375 60.4595 153.225 46.9725C153.175 46.9247 153.125 46.8772 153.074 46.8301L146.228 54.1195C146.256 54.1452 146.284 54.1711 146.311 54.197C148.753 56.5248 150.942 63.4953 145.937 77.5904C141.279 90.7069 131.395 106.509 117.083 121.464C102.77 136.419 87.4057 146.997 74.4901 152.243C62.0918 157.278 55.1209 156.329 52.0336 154.41L45.1336 161.757Z" fill="black"/>
</svg>
