<svg width="200" height="200" viewBox="0 0 200 200" fill="none" xmlns="http://www.w3.org/2000/svg">
<path fill-rule="evenodd" clip-rule="evenodd" d="M56.4164 95.3121L66.9711 91.4057L85.3376 74.6999C87.8164 71.6994 90.5927 68.7798 93.6498 65.9992C115.185 46.4116 142.498 41.1374 154.655 54.219C166.813 67.3006 159.212 93.7843 137.677 113.372C134.441 116.315 131.075 118.935 127.649 121.218L112.813 134.713L104.906 151.592L104.935 160.301C106.229 161.98 105.682 164.294 103.768 164.821L82.0487 170.797C79.659 171.454 77.2376 168.869 78.0817 166.561L84.0334 150.291L78.3748 144.249L51.1779 151.47C48.8021 152.101 46.4099 149.547 47.2261 147.251L56.5692 120.967L51.2088 115.244L34.4418 119.857C32.0521 120.515 29.6307 117.929 30.4748 115.622L38.1469 94.6479C38.8607 92.6966 41.4654 92.4002 43.0483 94.0902L43.221 94.2746L56.4164 95.3121ZM132.74 83.9361C138.303 84.2936 142.523 80.0735 142.166 74.5103C141.808 68.947 137.009 64.1473 131.445 63.7898C125.882 63.4323 121.662 67.6524 122.02 73.2157C122.377 78.7789 127.177 83.5786 132.74 83.9361ZM119.618 94.3782C119.975 99.9414 115.755 104.161 110.192 103.804C104.629 103.447 99.8289 98.6468 99.4714 93.0836C99.1139 87.5203 103.334 83.3002 108.897 83.6577C114.461 84.0152 119.26 88.8149 119.618 94.3782ZM58.1233 144.703C56.0262 145.009 54.2708 143.135 54.739 141.089L58.0759 126.509C58.6116 124.168 61.579 123.382 63.2284 125.143L74.8386 137.539C76.488 139.3 75.4697 142.168 73.0704 142.518L58.1233 144.703Z" fill="black"/>
</svg>
